<mxfile host="app.diagrams.net" modified="2024-03-09T09:17:25.424Z" agent="Mozilla/5.0 (X11; Linux x86_64) AppleWebKit/537.36 (KHTML, like Gecko) Chrome/122.0.0.0 Safari/537.36" etag="QZX7NWNdHexUTGTXiQQw" version="24.0.2" type="github">
  <diagram id="kgpKYQtTHZ0yAKxKKP6v" name="Page-1">
    <mxGraphModel dx="1969" dy="918" grid="1" gridSize="10" guides="1" tooltips="1" connect="1" arrows="1" fold="1" page="1" pageScale="1" pageWidth="850" pageHeight="1500" math="0" shadow="0">
      <root>
        <mxCell id="0" />
        <mxCell id="1" parent="0" />
        <mxCell id="v8NH9I9sAC5LbvN6otHq-7" style="edgeStyle=orthogonalEdgeStyle;rounded=0;orthogonalLoop=1;jettySize=auto;html=1;exitX=0.5;exitY=1;exitDx=0;exitDy=0;entryX=0.5;entryY=0;entryDx=0;entryDy=0;" edge="1" parent="1" source="AFN7987iHcUHxxrd5nxf-3" target="v8NH9I9sAC5LbvN6otHq-5">
          <mxGeometry relative="1" as="geometry" />
        </mxCell>
        <mxCell id="AFN7987iHcUHxxrd5nxf-3" value="" style="ellipse;whiteSpace=wrap;html=1;" parent="1" vertex="1">
          <mxGeometry x="315" y="40" width="140" height="80" as="geometry" />
        </mxCell>
        <mxCell id="AFN7987iHcUHxxrd5nxf-5" value="START" style="text;strokeColor=none;align=center;fillColor=none;html=1;verticalAlign=middle;whiteSpace=wrap;rounded=0;" parent="1" vertex="1">
          <mxGeometry x="351" y="65" width="60" height="30" as="geometry" />
        </mxCell>
        <mxCell id="AFN7987iHcUHxxrd5nxf-12" style="edgeStyle=orthogonalEdgeStyle;rounded=0;orthogonalLoop=1;jettySize=auto;html=1;entryX=0.5;entryY=0;entryDx=0;entryDy=0;" parent="1" source="AFN7987iHcUHxxrd5nxf-6" target="AFN7987iHcUHxxrd5nxf-7" edge="1">
          <mxGeometry relative="1" as="geometry" />
        </mxCell>
        <mxCell id="AFN7987iHcUHxxrd5nxf-6" value="" style="shape=parallelogram;perimeter=parallelogramPerimeter;whiteSpace=wrap;html=1;fixedSize=1;" parent="1" vertex="1">
          <mxGeometry x="330" y="410" width="120" height="60" as="geometry" />
        </mxCell>
        <mxCell id="AFN7987iHcUHxxrd5nxf-20" style="edgeStyle=orthogonalEdgeStyle;rounded=0;orthogonalLoop=1;jettySize=auto;html=1;exitX=0.5;exitY=1;exitDx=0;exitDy=0;entryX=0.5;entryY=0;entryDx=0;entryDy=0;" parent="1" source="AFN7987iHcUHxxrd5nxf-7" target="AFN7987iHcUHxxrd5nxf-8" edge="1">
          <mxGeometry relative="1" as="geometry" />
        </mxCell>
        <mxCell id="v8NH9I9sAC5LbvN6otHq-17" style="edgeStyle=orthogonalEdgeStyle;rounded=0;orthogonalLoop=1;jettySize=auto;html=1;exitX=0;exitY=0.5;exitDx=0;exitDy=0;entryX=0;entryY=0;entryDx=68.75;entryDy=50;entryPerimeter=0;" edge="1" parent="1" source="AFN7987iHcUHxxrd5nxf-7" target="v8NH9I9sAC5LbvN6otHq-14">
          <mxGeometry relative="1" as="geometry">
            <mxPoint x="330" y="550" as="targetPoint" />
          </mxGeometry>
        </mxCell>
        <mxCell id="AFN7987iHcUHxxrd5nxf-7" value="" style="rhombus;whiteSpace=wrap;html=1;" parent="1" vertex="1">
          <mxGeometry x="345" y="515" width="90" height="90" as="geometry" />
        </mxCell>
        <mxCell id="AFN7987iHcUHxxrd5nxf-23" style="edgeStyle=orthogonalEdgeStyle;rounded=0;orthogonalLoop=1;jettySize=auto;html=1;exitX=0.5;exitY=1;exitDx=0;exitDy=0;entryX=0.5;entryY=0;entryDx=0;entryDy=0;" parent="1" source="AFN7987iHcUHxxrd5nxf-8" target="AFN7987iHcUHxxrd5nxf-21" edge="1">
          <mxGeometry relative="1" as="geometry" />
        </mxCell>
        <mxCell id="AFN7987iHcUHxxrd5nxf-8" value="" style="rounded=0;whiteSpace=wrap;html=1;" parent="1" vertex="1">
          <mxGeometry x="330" y="670" width="120" height="60" as="geometry" />
        </mxCell>
        <mxCell id="AFN7987iHcUHxxrd5nxf-9" value="INPUT VALUE" style="text;strokeColor=none;align=center;fillColor=none;html=1;verticalAlign=middle;whiteSpace=wrap;rounded=0;" parent="1" vertex="1">
          <mxGeometry x="360" y="425" width="60" height="30" as="geometry" />
        </mxCell>
        <mxCell id="AFN7987iHcUHxxrd5nxf-13" value="VALUE &amp;gt;=0" style="text;strokeColor=none;align=center;fillColor=none;html=1;verticalAlign=middle;whiteSpace=wrap;rounded=0;" parent="1" vertex="1">
          <mxGeometry x="360" y="545" width="60" height="30" as="geometry" />
        </mxCell>
        <mxCell id="AFN7987iHcUHxxrd5nxf-15" value="POSITIVE" style="text;strokeColor=none;align=center;fillColor=none;html=1;verticalAlign=middle;whiteSpace=wrap;rounded=0;" parent="1" vertex="1">
          <mxGeometry x="395" y="620" width="60" height="30" as="geometry" />
        </mxCell>
        <mxCell id="AFN7987iHcUHxxrd5nxf-17" value="NEGATIVE" style="text;strokeColor=none;align=center;fillColor=none;html=1;verticalAlign=middle;whiteSpace=wrap;rounded=0;" parent="1" vertex="1">
          <mxGeometry x="200" y="550" width="60" height="30" as="geometry" />
        </mxCell>
        <mxCell id="AFN7987iHcUHxxrd5nxf-18" value="TOTAL VALUE=PROVEUS VALUE +VALUE" style="text;strokeColor=none;align=center;fillColor=none;html=1;verticalAlign=middle;whiteSpace=wrap;rounded=0;" parent="1" vertex="1">
          <mxGeometry x="350" y="685" width="80" height="30" as="geometry" />
        </mxCell>
        <mxCell id="AFN7987iHcUHxxrd5nxf-19" style="edgeStyle=orthogonalEdgeStyle;rounded=0;orthogonalLoop=1;jettySize=auto;html=1;exitX=1;exitY=0.5;exitDx=0;exitDy=0;entryX=0.971;entryY=0.602;entryDx=0;entryDy=0;entryPerimeter=0;" parent="1" source="AFN7987iHcUHxxrd5nxf-7" target="AFN7987iHcUHxxrd5nxf-7" edge="1">
          <mxGeometry relative="1" as="geometry" />
        </mxCell>
        <mxCell id="AFN7987iHcUHxxrd5nxf-28" style="edgeStyle=orthogonalEdgeStyle;rounded=0;orthogonalLoop=1;jettySize=auto;html=1;exitX=0.5;exitY=1;exitDx=0;exitDy=0;entryX=0.5;entryY=0;entryDx=0;entryDy=0;" parent="1" source="AFN7987iHcUHxxrd5nxf-21" target="AFN7987iHcUHxxrd5nxf-26" edge="1">
          <mxGeometry relative="1" as="geometry" />
        </mxCell>
        <mxCell id="v8NH9I9sAC5LbvN6otHq-3" style="edgeStyle=orthogonalEdgeStyle;rounded=0;orthogonalLoop=1;jettySize=auto;html=1;exitX=1;exitY=0.5;exitDx=0;exitDy=0;entryX=0.5;entryY=1;entryDx=0;entryDy=0;" edge="1" parent="1" source="AFN7987iHcUHxxrd5nxf-21" target="v8NH9I9sAC5LbvN6otHq-1">
          <mxGeometry relative="1" as="geometry" />
        </mxCell>
        <mxCell id="AFN7987iHcUHxxrd5nxf-21" value="" style="rhombus;whiteSpace=wrap;html=1;" parent="1" vertex="1">
          <mxGeometry x="350" y="770" width="80" height="80" as="geometry" />
        </mxCell>
        <mxCell id="AFN7987iHcUHxxrd5nxf-22" value="INPUT ANOTHER VALUE" style="text;strokeColor=none;align=center;fillColor=none;html=1;verticalAlign=middle;whiteSpace=wrap;rounded=0;" parent="1" vertex="1">
          <mxGeometry x="360" y="795" width="60" height="30" as="geometry" />
        </mxCell>
        <mxCell id="AFN7987iHcUHxxrd5nxf-25" value="YES" style="text;strokeColor=none;align=center;fillColor=none;html=1;verticalAlign=middle;whiteSpace=wrap;rounded=0;" parent="1" vertex="1">
          <mxGeometry x="450" y="780" width="60" height="30" as="geometry" />
        </mxCell>
        <mxCell id="AFN7987iHcUHxxrd5nxf-26" value="" style="rounded=0;whiteSpace=wrap;html=1;" parent="1" vertex="1">
          <mxGeometry x="330" y="875" width="120" height="60" as="geometry" />
        </mxCell>
        <mxCell id="AFN7987iHcUHxxrd5nxf-27" value="AVARAGE=TOTAL VALUE/MANY VALUE" style="text;strokeColor=none;align=center;fillColor=none;html=1;verticalAlign=middle;whiteSpace=wrap;rounded=0;" parent="1" vertex="1">
          <mxGeometry x="360" y="890" width="60" height="30" as="geometry" />
        </mxCell>
        <mxCell id="AFN7987iHcUHxxrd5nxf-29" value="" style="rhombus;whiteSpace=wrap;html=1;" parent="1" vertex="1">
          <mxGeometry x="345" y="1050" width="90" height="90" as="geometry" />
        </mxCell>
        <mxCell id="AFN7987iHcUHxxrd5nxf-30" value="AVARAGE &amp;gt;=50" style="text;strokeColor=none;align=center;fillColor=none;html=1;verticalAlign=middle;whiteSpace=wrap;rounded=0;" parent="1" vertex="1">
          <mxGeometry x="360" y="1080" width="60" height="30" as="geometry" />
        </mxCell>
        <mxCell id="AFN7987iHcUHxxrd5nxf-39" style="edgeStyle=orthogonalEdgeStyle;rounded=0;orthogonalLoop=1;jettySize=auto;html=1;exitX=0;exitY=0;exitDx=50;exitDy=50;exitPerimeter=0;entryX=0.5;entryY=0;entryDx=0;entryDy=0;" parent="1" source="AFN7987iHcUHxxrd5nxf-32" target="AFN7987iHcUHxxrd5nxf-29" edge="1">
          <mxGeometry relative="1" as="geometry" />
        </mxCell>
        <mxCell id="AFN7987iHcUHxxrd5nxf-32" value="" style="shape=display;whiteSpace=wrap;html=1;" parent="1" vertex="1">
          <mxGeometry x="340" y="970" width="100" height="50" as="geometry" />
        </mxCell>
        <mxCell id="AFN7987iHcUHxxrd5nxf-33" value="PRINT AVARAGE VALUE" style="text;strokeColor=none;align=center;fillColor=none;html=1;verticalAlign=middle;whiteSpace=wrap;rounded=0;" parent="1" vertex="1">
          <mxGeometry x="365" y="980" width="60" height="30" as="geometry" />
        </mxCell>
        <mxCell id="AFN7987iHcUHxxrd5nxf-34" style="edgeStyle=orthogonalEdgeStyle;rounded=0;orthogonalLoop=1;jettySize=auto;html=1;exitX=0.5;exitY=1;exitDx=0;exitDy=0;entryX=0;entryY=0;entryDx=50;entryDy=0;entryPerimeter=0;" parent="1" source="AFN7987iHcUHxxrd5nxf-26" target="AFN7987iHcUHxxrd5nxf-32" edge="1">
          <mxGeometry relative="1" as="geometry" />
        </mxCell>
        <mxCell id="AFN7987iHcUHxxrd5nxf-49" style="edgeStyle=orthogonalEdgeStyle;rounded=0;orthogonalLoop=1;jettySize=auto;html=1;exitX=0;exitY=0;exitDx=56.25;exitDy=50;exitPerimeter=0;" parent="1" source="AFN7987iHcUHxxrd5nxf-40" edge="1">
          <mxGeometry relative="1" as="geometry">
            <mxPoint x="400" y="1310" as="targetPoint" />
          </mxGeometry>
        </mxCell>
        <mxCell id="AFN7987iHcUHxxrd5nxf-40" value="" style="shape=display;whiteSpace=wrap;html=1;" parent="1" vertex="1">
          <mxGeometry x="520" y="1180" width="110" height="50" as="geometry" />
        </mxCell>
        <mxCell id="AFN7987iHcUHxxrd5nxf-48" style="edgeStyle=orthogonalEdgeStyle;rounded=0;orthogonalLoop=1;jettySize=auto;html=1;exitX=0;exitY=0;exitDx=56.25;exitDy=50;exitPerimeter=0;" parent="1" source="AFN7987iHcUHxxrd5nxf-41" target="AFN7987iHcUHxxrd5nxf-46" edge="1">
          <mxGeometry relative="1" as="geometry" />
        </mxCell>
        <mxCell id="AFN7987iHcUHxxrd5nxf-41" value="" style="shape=display;whiteSpace=wrap;html=1;" parent="1" vertex="1">
          <mxGeometry x="150" y="1180" width="110" height="50" as="geometry" />
        </mxCell>
        <mxCell id="AFN7987iHcUHxxrd5nxf-42" value="PRINT (NOT PASSED)" style="text;strokeColor=none;align=center;fillColor=none;html=1;verticalAlign=middle;whiteSpace=wrap;rounded=0;" parent="1" vertex="1">
          <mxGeometry x="180" y="1190" width="60" height="30" as="geometry" />
        </mxCell>
        <mxCell id="AFN7987iHcUHxxrd5nxf-43" value="PRINT (PASSED)" style="text;strokeColor=none;align=center;fillColor=none;html=1;verticalAlign=middle;whiteSpace=wrap;rounded=0;" parent="1" vertex="1">
          <mxGeometry x="550" y="1190" width="60" height="30" as="geometry" />
        </mxCell>
        <mxCell id="AFN7987iHcUHxxrd5nxf-44" style="edgeStyle=orthogonalEdgeStyle;rounded=0;orthogonalLoop=1;jettySize=auto;html=1;exitX=1;exitY=0.5;exitDx=0;exitDy=0;entryX=0;entryY=0;entryDx=56.25;entryDy=0;entryPerimeter=0;" parent="1" source="AFN7987iHcUHxxrd5nxf-29" target="AFN7987iHcUHxxrd5nxf-40" edge="1">
          <mxGeometry relative="1" as="geometry" />
        </mxCell>
        <mxCell id="AFN7987iHcUHxxrd5nxf-45" style="edgeStyle=orthogonalEdgeStyle;rounded=0;orthogonalLoop=1;jettySize=auto;html=1;exitX=0;exitY=0.5;exitDx=0;exitDy=0;entryX=0;entryY=0;entryDx=56.25;entryDy=0;entryPerimeter=0;" parent="1" source="AFN7987iHcUHxxrd5nxf-29" target="AFN7987iHcUHxxrd5nxf-41" edge="1">
          <mxGeometry relative="1" as="geometry" />
        </mxCell>
        <mxCell id="AFN7987iHcUHxxrd5nxf-46" value="" style="ellipse;whiteSpace=wrap;html=1;" parent="1" vertex="1">
          <mxGeometry x="325" y="1310" width="140" height="80" as="geometry" />
        </mxCell>
        <mxCell id="AFN7987iHcUHxxrd5nxf-47" value="END" style="text;strokeColor=none;align=center;fillColor=none;html=1;verticalAlign=middle;whiteSpace=wrap;rounded=0;" parent="1" vertex="1">
          <mxGeometry x="365" y="1335" width="60" height="30" as="geometry" />
        </mxCell>
        <mxCell id="AFN7987iHcUHxxrd5nxf-50" value="NO" style="text;strokeColor=none;align=center;fillColor=none;html=1;verticalAlign=middle;whiteSpace=wrap;rounded=0;" parent="1" vertex="1">
          <mxGeometry x="395" y="840" width="60" height="30" as="geometry" />
        </mxCell>
        <mxCell id="v8NH9I9sAC5LbvN6otHq-11" style="edgeStyle=orthogonalEdgeStyle;rounded=0;orthogonalLoop=1;jettySize=auto;html=1;exitX=0.5;exitY=0;exitDx=0;exitDy=0;entryX=0.5;entryY=1;entryDx=0;entryDy=0;" edge="1" parent="1" source="v8NH9I9sAC5LbvN6otHq-1" target="v8NH9I9sAC5LbvN6otHq-9">
          <mxGeometry relative="1" as="geometry" />
        </mxCell>
        <mxCell id="v8NH9I9sAC5LbvN6otHq-1" value="" style="rounded=0;whiteSpace=wrap;html=1;" vertex="1" parent="1">
          <mxGeometry x="570" y="710" width="120" height="60" as="geometry" />
        </mxCell>
        <mxCell id="v8NH9I9sAC5LbvN6otHq-2" value="PROVEUS VALUE = TOTAL VALUE" style="text;strokeColor=none;align=center;fillColor=none;html=1;verticalAlign=middle;whiteSpace=wrap;rounded=0;" vertex="1" parent="1">
          <mxGeometry x="580" y="730" width="100" height="30" as="geometry" />
        </mxCell>
        <mxCell id="v8NH9I9sAC5LbvN6otHq-8" style="edgeStyle=orthogonalEdgeStyle;rounded=0;orthogonalLoop=1;jettySize=auto;html=1;exitX=0.5;exitY=1;exitDx=0;exitDy=0;entryX=0.5;entryY=0;entryDx=0;entryDy=0;" edge="1" parent="1" source="v8NH9I9sAC5LbvN6otHq-5" target="AFN7987iHcUHxxrd5nxf-6">
          <mxGeometry relative="1" as="geometry" />
        </mxCell>
        <mxCell id="v8NH9I9sAC5LbvN6otHq-5" value="" style="shape=hexagon;perimeter=hexagonPerimeter2;whiteSpace=wrap;html=1;fixedSize=1;" vertex="1" parent="1">
          <mxGeometry x="290" y="180" width="190" height="120" as="geometry" />
        </mxCell>
        <mxCell id="v8NH9I9sAC5LbvN6otHq-6" value="VALUE,TOTALVALUE,PROVEUS VALUE,MANY VALUE = 0" style="text;strokeColor=none;align=center;fillColor=none;html=1;verticalAlign=middle;whiteSpace=wrap;rounded=0;" vertex="1" parent="1">
          <mxGeometry x="340" y="200" width="100" height="90" as="geometry" />
        </mxCell>
        <mxCell id="v8NH9I9sAC5LbvN6otHq-12" style="edgeStyle=orthogonalEdgeStyle;rounded=0;orthogonalLoop=1;jettySize=auto;html=1;exitX=0.5;exitY=0;exitDx=0;exitDy=0;entryX=1;entryY=0.5;entryDx=0;entryDy=0;" edge="1" parent="1" source="v8NH9I9sAC5LbvN6otHq-9" target="AFN7987iHcUHxxrd5nxf-6">
          <mxGeometry relative="1" as="geometry">
            <Array as="points">
              <mxPoint x="630" y="440" />
            </Array>
          </mxGeometry>
        </mxCell>
        <mxCell id="v8NH9I9sAC5LbvN6otHq-9" value="" style="rounded=0;whiteSpace=wrap;html=1;" vertex="1" parent="1">
          <mxGeometry x="570" y="550" width="120" height="60" as="geometry" />
        </mxCell>
        <mxCell id="v8NH9I9sAC5LbvN6otHq-10" value="MANY VALUE=MANY VALUE +1" style="text;strokeColor=none;align=center;fillColor=none;html=1;verticalAlign=middle;whiteSpace=wrap;rounded=0;" vertex="1" parent="1">
          <mxGeometry x="600" y="565" width="60" height="30" as="geometry" />
        </mxCell>
        <mxCell id="v8NH9I9sAC5LbvN6otHq-18" style="edgeStyle=orthogonalEdgeStyle;rounded=0;orthogonalLoop=1;jettySize=auto;html=1;exitX=0;exitY=0;exitDx=68.75;exitDy=0;exitPerimeter=0;entryX=0;entryY=0.5;entryDx=0;entryDy=0;" edge="1" parent="1" source="v8NH9I9sAC5LbvN6otHq-14" target="AFN7987iHcUHxxrd5nxf-6">
          <mxGeometry relative="1" as="geometry">
            <Array as="points">
              <mxPoint x="269" y="440" />
            </Array>
          </mxGeometry>
        </mxCell>
        <mxCell id="v8NH9I9sAC5LbvN6otHq-14" value="" style="shape=display;whiteSpace=wrap;html=1;" vertex="1" parent="1">
          <mxGeometry x="200" y="470" width="130" height="50" as="geometry" />
        </mxCell>
        <mxCell id="v8NH9I9sAC5LbvN6otHq-15" value="PRINT(&quot;BERIKAN NILAI POSITIVE&quot;)" style="text;strokeColor=none;align=center;fillColor=none;html=1;verticalAlign=middle;whiteSpace=wrap;rounded=0;" vertex="1" parent="1">
          <mxGeometry x="230" y="480" width="80" height="30" as="geometry" />
        </mxCell>
      </root>
    </mxGraphModel>
  </diagram>
</mxfile>
